<svg viewBox="0 0 50 47" fill="none" xmlns="http://www.w3.org/2000/svg" class="logo-icon h-full w-auto" aria-hidden="true"><path d="M12.561 44.6351C8.61562 42.4301 5.86428 38.4343 5.7176 34.6921C5.66413 33.3318 6.02604 31.711 6.35368 30.7374C6.88558 29.1536 7.77116 26.0998 7.73689 23.4368C7.69988 20.6504 6.7526 17.7008 6.19055 16.1897C5.78751 15.1064 5.38721 13.4718 5.40092 12.2624C5.44479 8.27886 7.83697 4.58331 11.9633 2.1219C16.0691 -0.327172 20.7109 -0.678218 24.0805 1.20589C24.0846 1.20864 24.0887 1.21001 24.0928 1.21275C25.4116 1.95323 26.23 2.72525 27.1224 3.73176C28.2219 4.97275 30.4126 7.2463 32.7211 8.53666C35.1421 9.89009 38.158 10.5428 39.74 10.8116C40.9148 11.0104 42.0828 11.2586 43.477 12.043C46.859 13.9573 49.003 18.1012 49.0702 22.8595C49.1387 27.6987 47.2387 31.6781 43.8595 33.7761C42.9561 34.3369 41.4152 34.9088 40.1142 35.1652C38.5322 35.4778 35.5218 36.2142 33.1283 37.6417C30.8238 39.0157 28.651 41.4839 27.6077 42.6701C26.8675 43.512 25.8558 44.5665 24.6014 45.259C21.3168 47.0732 16.479 46.8223 12.5624 44.6337L12.561 44.6351ZM21.8912 5.12496C19.9761 4.05401 16.9108 4.39682 14.2609 5.97789C11.5082 7.61928 9.91384 9.92849 9.8878 12.3117C9.88369 12.6861 10.0619 13.7255 10.3964 14.6251C11.2052 16.8026 12.1799 20.0882 12.2238 23.3764C12.2663 26.5386 11.3683 29.9009 10.6075 32.1662C10.3882 32.8189 10.1771 33.8762 10.2017 34.5138C10.2867 36.6818 12.2005 39.2899 14.7503 40.7147C17.3234 42.1531 20.4819 42.4054 22.4313 41.329C23.0866 40.967 23.7761 40.2279 24.2381 39.7027C25.4335 38.3451 27.9203 35.519 30.8293 33.7843C33.6547 32.099 36.9653 31.2091 39.2451 30.7593C40.1513 30.5811 41.1492 30.1738 41.492 29.9599C43.5017 28.712 44.6272 26.1464 44.5819 22.9212C44.5381 19.8002 43.2371 17.0632 41.2672 15.9483C40.5611 15.5479 39.9936 15.4053 38.9888 15.2353C36.7076 14.8486 33.3901 14.0519 30.5304 12.4543C27.6708 10.8568 25.3376 8.48455 23.7638 6.71014C23.1113 5.97377 22.6863 5.57062 21.8967 5.1277L21.8912 5.12496Z" fill="black"></path><path d="M43.6251 34.1956C43.6292 33.1315 43.3084 31.5203 42.8451 30.2766C42.2816 28.7655 41.3316 25.8145 41.2919 23.0267C41.2535 20.3432 42.2172 17.1989 42.6806 15.6877C43.0096 14.6154 43.377 13.2016 43.3098 11.77C43.1508 8.40909 40.9245 4.85478 37.644 2.57848C37.4548 2.44684 37.1929 2.50581 37.0805 2.70738L35.26 5.9655C35.1654 6.13554 35.2093 6.34945 35.3656 6.46464C37.3629 7.9456 38.7365 10.0834 38.8257 11.9798C38.8613 12.7286 38.5926 13.7035 38.3883 14.3713C37.8578 16.1019 36.7556 19.7014 36.8036 23.0884C36.8502 26.3781 37.8277 29.665 38.6392 31.8426C38.9614 32.7078 39.1382 33.7719 39.1368 34.1764C39.1286 36.1908 37.9702 38.1613 35.9153 39.7218C35.759 39.8411 35.7179 40.0605 35.8193 40.2292L37.7344 43.4283C37.8523 43.6244 38.1114 43.6765 38.2979 43.5435C41.688 41.1041 43.6114 37.7609 43.6251 34.1956Z" fill="#76F276"></path><path d="M40.1128 35.1666C39.7537 35.2379 39.3191 35.3311 38.8352 35.449C38.9421 35.0253 38.9983 34.6002 38.9997 34.1779C39.0011 33.7843 38.8283 32.7435 38.5117 31.8934C38.4006 31.5944 38.2937 31.2914 38.1909 30.9883C38.5596 30.9033 38.9147 30.8279 39.2451 30.7621C40.1512 30.5838 41.1492 30.1765 41.4919 29.9626C41.8867 29.7172 42.2473 29.4182 42.5722 29.0768C42.7202 29.532 42.8601 29.9242 42.9739 30.2286C43.3933 31.3544 43.6963 32.7792 43.7525 33.8405C42.8381 34.3808 41.3658 34.9197 40.1142 35.1666H40.1128Z" fill="black"></path><path d="M4.12052 22.5235C4.31793 22.5208 4.48244 22.3713 4.50163 22.1752C4.75387 19.6151 5.82726 17.5883 7.54634 16.5037C7.86301 16.3035 8.84182 15.9113 9.78224 15.7248C12.0606 15.2723 15.3686 14.381 18.1912 12.6943C20.9055 11.0735 23.2991 8.54624 24.829 6.71149C25.2704 6.18219 26.0587 5.44856 26.6152 5.13454C28.226 4.22814 30.8033 4.28573 33.1077 5.20311C33.2873 5.27441 33.4915 5.19762 33.5848 5.03033L35.4067 1.76947C35.5191 1.56789 35.4313 1.31421 35.2202 1.22234C31.5394 -0.391638 27.3432 -0.423177 24.4163 1.22234C23.2292 1.89014 22.0406 3.04748 21.3826 3.83596C20.3133 5.11809 18.1775 7.47391 15.8909 8.83969C13.5001 10.2685 10.491 11.0077 8.91036 11.3203C7.77665 11.5452 6.17547 12.0608 5.15279 12.7053C2.13275 14.61 0.29989 18.0025 0.00103932 22.1464C-0.0154112 22.374 0.165547 22.5688 0.393112 22.566L4.12052 22.5208V22.5235Z" fill="#B88EFF"></path><path d="M34.1755 41.2221C34.0741 41.0534 33.863 40.9862 33.6834 41.0671C31.3022 42.1586 28.8072 42.2793 27.0895 41.329C26.3793 40.9368 25.9599 40.5282 25.2881 39.7617C23.7637 38.0215 21.3455 35.6122 18.4872 34.0133C15.7455 32.4816 12.3854 31.6699 10.0495 31.2598C9.08026 31.0898 8.51547 30.939 7.7231 30.4974L7.71762 30.4947C6.0616 29.5691 4.85523 27.3559 4.53033 24.7793C4.50565 24.5845 4.33704 24.4392 4.141 24.4419L0.410846 24.4872C0.18191 24.4899 0.006441 24.6888 0.028375 24.9164C0.428671 29.1371 2.46853 32.7051 5.52833 34.4137L5.53929 34.4206C6.86082 35.157 7.94792 35.449 9.27219 35.6822C10.9049 35.9688 13.988 36.6434 16.2966 37.9338C18.7175 39.2872 20.8533 41.5141 21.9117 42.7222C22.6876 43.608 23.4991 44.4665 24.8714 45.2344C24.8878 45.2426 24.9029 45.2522 24.9194 45.2604C28.0107 46.9676 32.1329 46.8374 35.9261 44.9725C36.1318 44.871 36.2085 44.6187 36.0906 44.4226L34.1755 41.2234V41.2221Z" fill="#B88EFF"></path><path d="M26.6824 5.25518C26.1396 5.56097 25.3678 6.28089 24.9346 6.79922C24.7618 7.00629 24.585 7.21197 24.4068 7.41629C24.1792 7.17221 23.9653 6.93498 23.7638 6.71009C23.1113 5.97373 22.6863 5.57057 21.8967 5.12766C21.8953 5.12766 21.8926 5.12492 21.8912 5.12492C21.4799 4.89454 21.0152 4.73136 20.5135 4.62989C20.7767 4.33644 21.0358 4.03751 21.2771 3.74954C21.9008 3.00083 23.0002 1.92302 24.1271 1.23328C25.4253 1.9669 26.2369 2.73481 27.1211 3.73171C27.3816 4.02516 27.7037 4.37758 28.0739 4.76016C27.5529 4.86575 27.0813 5.0303 26.6824 5.25518Z" fill="black"></path><path d="M10.6075 32.1662C10.3882 32.8189 10.177 33.8762 10.2017 34.5138C10.2209 35.0157 10.3402 35.5422 10.5417 36.0702C10.0413 35.9618 9.59854 35.8768 9.24896 35.8151C7.99187 35.5943 6.94727 35.3201 5.71759 34.6715C5.66824 33.3139 6.02878 31.7054 6.35367 30.736C6.46746 30.3986 6.59632 29.9941 6.7293 29.543C7.05694 29.8858 7.41062 30.1669 7.78487 30.3753C8.5649 30.81 9.1201 30.9567 10.0729 31.1254C10.3484 31.1734 10.6226 31.2255 10.894 31.2804C10.7981 31.5903 10.7021 31.8878 10.6089 32.1676L10.6075 32.1662Z" fill="black"></path></svg>
