<svg viewBox="0 0 271 102" fill="none" xmlns="http://www.w3.org/2000/svg" class="logo-text h-full w-auto" aria-hidden="true"><path d="M0 21.064H17.9157V99.2835H0V21.064Z" fill="black"></path><path d="M44.1866 98.0672C38.8207 95.7404 34.6208 92.5 31.5839 88.3459C28.5471 84.1948 26.9758 79.4355 26.8759 74.0681H45.097C45.4994 78.1194 47.3233 81.3598 50.5628 83.7894C53.8023 86.2189 58.0022 87.4352 63.1654 87.4352C67.7207 87.4352 71.3391 86.501 74.0206 84.6266C76.702 82.7552 78.0442 80.1993 78.0442 76.956C78.0442 74.4265 77.31 72.5023 75.8415 71.1832C74.373 69.867 71.9177 68.9064 68.4785 68.2982L50.4101 65.4133C43.4259 64.2998 38.1599 61.8967 34.6178 58.198C31.0729 54.5022 29.3048 49.6695 29.3048 43.694C29.3048 38.7349 30.6705 34.3781 33.4049 30.6324C36.1392 26.8867 39.9837 23.9753 44.9443 21.8983C49.902 19.8242 55.6232 18.7842 62.1022 18.7842C72.1233 18.7842 80.1706 21.1374 86.2443 25.8467C92.318 30.556 95.5076 36.9105 95.8101 44.9073H77.589C77.2865 41.1616 75.6917 38.1738 72.8047 35.9469C69.9205 33.7201 66.1465 32.6066 61.4913 32.6066C57.1387 32.6066 53.6966 33.5174 51.1649 35.3417C48.6332 37.1632 47.3703 39.5458 47.3703 42.4806C47.3703 44.8103 48.128 46.6083 49.6464 47.8716C51.1649 49.1378 53.6936 50.0749 57.2386 50.6801L75.7622 53.5651C82.4439 54.5786 87.5043 56.9817 90.9465 60.7803C94.3857 64.5789 96.1097 69.5145 96.1097 75.5899C96.1097 83.3869 93.0464 89.665 86.9228 94.4243C80.7962 99.1835 72.6226 101.563 62.4018 101.563C55.6173 101.563 49.5466 100.397 44.1807 98.0701L44.1866 98.0672Z" fill="black"></path><path d="M132.84 98.3729C128.285 96.2459 124.74 93.1583 122.211 89.107V99.2837H105.053V0H122.969V30.4799C125.398 26.7342 128.837 23.8492 133.295 21.8221C137.748 19.798 142.303 18.7844 146.961 18.7844C154.553 18.7844 161.132 20.5324 166.701 24.0255C172.266 27.5186 176.519 32.3807 179.456 38.6059C182.39 44.8341 183.859 51.9965 183.859 60.099C183.859 68.2015 182.364 75.3904 179.38 81.6655C176.393 87.9466 172.117 92.8293 166.548 96.3223C160.98 99.8154 154.553 101.563 147.264 101.563C142.2 101.563 137.395 100.5 132.84 98.3729ZM159.946 78.6278C163.84 74.1741 165.79 67.9959 165.79 60.099C165.79 52.2021 163.84 46.0503 159.946 41.6436C156.048 37.2398 150.706 35.0365 143.927 35.0365C137.149 35.0365 132.159 37.2898 128.059 41.7964C123.959 46.303 121.909 52.4049 121.909 60.099C121.909 67.7932 123.959 74.1741 128.059 78.6278C132.159 83.0845 137.445 85.3114 143.927 85.3114C150.409 85.3114 156.048 83.0845 159.946 78.6278Z" fill="black"></path><path d="M211.705 96.3987C205.681 92.9585 201.023 88.0965 197.737 81.8183C194.447 75.5402 192.802 68.2015 192.802 59.7964C192.802 51.3913 194.447 44.6843 197.737 38.4561C201.026 32.2279 205.631 27.3952 211.555 23.9521C217.476 20.5119 224.234 18.7874 231.826 18.7874C239.418 18.7874 246.326 20.3591 252.247 23.4967C258.168 26.6372 262.773 31.091 266.066 36.8638C269.355 42.6366 271 49.2673 271 56.7616V57.0642C271 60.6102 270.797 63.595 270.392 66.0246H211.024C211.426 72.5054 213.579 77.6202 217.476 81.3659C221.371 85.1146 226.56 86.986 233.039 86.986C237.797 86.986 241.771 85.9753 244.958 83.9482C248.147 81.9241 250.347 79.0891 251.563 75.4432H269.784C267.758 83.6456 263.508 90.0501 257.029 94.6566C250.55 99.2661 242.452 101.566 232.734 101.566C224.736 101.566 217.726 99.8448 211.705 96.4017V96.3987ZM246.779 38.3768C242.984 34.8337 238.047 33.0593 231.973 33.0593C225.899 33.0593 221.268 34.7809 217.473 38.224C213.679 41.6671 211.526 46.4264 211.021 52.5018H252.623C252.52 46.6291 250.573 41.9227 246.779 38.3768Z" fill="black"></path></svg>
